<svg width="41" height="40" viewBox="0 0 41 40" fill="none" xmlns="http://www.w3.org/2000/svg">
<path d="M0 20.1203C0.00239841 30.0197 7.33548 38.4487 17.2953 40V25.9359H12.0946V20.1203H17.3015V15.6933C17.0686 13.5955 17.7986 11.5049 19.2932 9.98827C20.7878 8.47166 22.8922 7.68634 25.0359 7.84527C26.5743 7.86968 28.1089 8.00418 29.6277 8.24775V13.196H27.0366C26.1445 13.0813 25.2476 13.3705 24.5986 13.9822C23.9496 14.5938 23.6187 15.4617 23.6993 16.3412V20.1203H29.3796L28.4715 25.9379H23.6993V40C34.4704 38.329 42.0236 28.6723 40.8869 18.0257C39.75 7.37916 30.321 -0.530135 19.4309 0.0277797C8.54073 0.585695 0.00174244 9.4155 0 20.1203Z" fill="black"/>
</svg>
