<svg width="40" height="40" viewBox="0 0 40 40" fill="none" xmlns="http://www.w3.org/2000/svg">
<path d="M19.9885 39.0547C14.6616 39.0547 14.0336 39.0266 11.9548 38.9357C10.3338 38.8824 8.73372 38.5528 7.2235 37.9612C4.61056 36.9444 2.54442 34.8775 1.52855 32.2641C0.959731 30.7484 0.652919 29.1471 0.621261 27.5284C0.5 25.454 0.5 24.7741 0.5 19.4884C0.5 14.1464 0.52815 13.5228 0.621261 11.4548C0.653612 9.83846 0.960402 8.23928 1.52855 6.72566C2.54332 4.10887 4.61281 2.04018 7.22999 1.02639C8.74284 0.455184 10.3424 0.14757 11.9592 0.11693C14.0271 -2.178e-07 14.707 0 19.9885 0C25.3586 0 25.9758 0.0281497 28.0221 0.11693C29.6428 0.14783 31.2467 0.455401 32.7642 1.02639C35.3807 2.04132 37.4497 4.10963 38.4657 6.72566C39.0441 8.26135 39.3524 9.88551 39.3773 11.5263C39.4986 13.6007 39.4986 14.2785 39.4986 19.562C39.4986 24.8455 39.4682 25.5385 39.3773 27.5891C39.345 29.2092 39.0373 30.812 38.4678 32.3291C37.4492 34.9442 35.38 37.0119 32.7642 38.0284C31.2489 38.5961 29.6485 38.903 28.0307 38.9357C25.9628 39.0547 25.285 39.0547 19.9885 39.0547ZM19.9149 3.42779C14.6183 3.42779 14.0683 3.45378 12.0003 3.54689C10.766 3.56326 9.54366 3.79103 8.38631 4.22032C6.6773 4.87429 5.32496 6.22113 4.66402 7.92745C4.23142 9.0974 4.0036 10.3331 3.99059 11.5804C3.87582 13.6787 3.87582 14.2287 3.87582 19.4884C3.87582 24.6853 3.89531 25.3154 3.99059 27.4007C4.00999 28.6354 4.23766 29.858 4.66402 31.0169C5.32593 32.7221 6.67804 34.0679 8.38631 34.7218C9.54288 35.154 10.7657 35.3818 12.0003 35.3953C14.0964 35.5165 14.6486 35.5165 19.9149 35.5165C25.2266 35.5165 25.7766 35.4905 27.8272 35.3953C29.0623 35.3803 30.2855 35.1525 31.4434 34.7218C33.1419 34.0623 34.4855 32.7195 35.1462 31.0212C35.5779 29.8504 35.8055 28.6139 35.8196 27.366H35.8434C35.9365 25.2959 35.9365 24.7438 35.9365 19.4538C35.9365 14.1638 35.9127 13.6072 35.8196 11.5393C35.8001 10.306 35.5723 9.08488 35.1462 7.92745C34.487 6.22672 33.1432 4.88141 31.4434 4.22032C30.2857 3.78887 29.0623 3.56103 27.8272 3.54689C25.7333 3.42779 25.1854 3.42779 19.9149 3.42779ZM19.9885 29.4903C15.939 29.4929 12.2871 27.0557 10.7355 23.3157C9.18384 19.5754 10.0383 15.2687 12.9003 12.4043C15.7623 9.53979 20.0682 8.68161 23.8097 10.23C27.5513 11.7784 29.9915 15.4283 29.9926 19.4776C29.9865 25.0017 25.5124 29.4795 19.9885 29.4903ZM19.9885 12.9771C16.4007 12.9771 13.4923 15.8856 13.4923 19.4732C13.4923 23.0611 16.4007 25.9694 19.9885 25.9694C23.5761 25.9694 26.4846 23.0611 26.4846 19.4732C26.4762 15.8889 23.5726 12.9854 19.9885 12.9771ZM30.3823 11.4332C29.0948 11.4284 28.0543 10.3821 28.0567 9.09461C28.0591 7.80712 29.1034 6.76466 30.391 6.76466C31.6783 6.76466 32.7227 7.8071 32.7253 9.09459C32.7257 9.71577 32.4788 10.3116 32.0393 10.7504C31.5997 11.1892 31.0034 11.4349 30.3823 11.4332Z" fill="black"/>
</svg>
