<svg width="42" height="45" viewBox="0 0 42 45" fill="none" xmlns="http://www.w3.org/2000/svg">
<path d="M22.9116 45H13.7469V15H22.9116V20C24.865 17.2881 27.8275 15.6714 30.9879 15.5925C36.6713 15.6269 41.2573 20.6735 41.2408 26.875V45H32.0762V28.125C31.7096 25.3315 29.5142 23.259 26.928 23.265C25.7968 23.304 24.7289 23.8445 23.971 24.7615C23.2131 25.6788 22.8305 26.8932 22.9116 28.125V45ZM9.16463 45H0V15H9.16463V45ZM4.58231 10C2.05157 10 0 7.76143 0 5C0 2.23857 2.05157 0 4.58231 0C7.11306 0 9.16463 2.23857 9.16463 5C9.16463 6.32608 8.68186 7.59785 7.82249 8.53552C6.96315 9.47322 5.79761 10 4.58231 10Z" fill="black"/>
</svg>
