<svg width="24" height="24" viewBox="0 0 24 24" fill="none" xmlns="http://www.w3.org/2000/svg">
<path d="M15.15 5H18C18.5523 5 19 5.44771 19 6V12C19 12.5523 18.5523 13 18 13H15.15C15.0672 13 15 12.9328 15 12.85V5.15C15 5.06716 15.0672 5 15.15 5Z" stroke="black" stroke-width="2" stroke-linecap="round"/>
<path d="M15 13L13.1679 15.7481C13.0584 15.9123 13 16.1054 13 16.3028V19C13 19.5523 12.5523 20 12 20H11C9.89543 20 9 19.1046 9 18V13" stroke="black" stroke-width="2" stroke-linecap="round"/>
<path d="M11 13L6.23453 13C5.04251 13 4.11512 11.9639 4.24676 10.7791L4.80232 5.77914C4.91486 4.76627 5.77099 4 6.79008 4L10.5858 4C10.851 4 11.1054 4.10536 11.2929 4.29289L11.7071 4.70711C11.8946 4.89464 12.149 5 12.4142 5H15" stroke="black" stroke-width="2" stroke-linecap="round"/>
</svg>
