<svg width="48" height="39" viewBox="0 0 48 39" fill="none" xmlns="http://www.w3.org/2000/svg">
<path d="M41.4746 6.14948C43.4892 4.91943 44.9968 2.98257 45.7155 0.700522C43.8225 1.8477 41.751 2.65581 39.5912 3.08989C36.5967 -0.145215 31.8521 -0.932513 28.0087 1.16795C24.1653 3.26842 22.1745 7.73663 23.1488 12.0759C15.3942 11.6782 8.16943 7.93729 3.2723 1.78389C0.71658 6.28587 2.0226 12.0409 6.25693 14.9358C4.72576 14.8855 3.22852 14.462 1.89011 13.7009V13.8249C1.89099 18.5143 5.12729 22.554 9.62812 23.4833C8.20786 23.8779 6.71811 23.936 5.27254 23.6532C6.53831 27.6637 10.1575 30.4111 14.2826 30.4931C10.8661 33.2316 6.64679 34.7168 2.30365 34.7095C1.53382 34.7106 0.764608 34.6654 0 34.5741C4.41039 37.4684 9.54355 39.0046 14.786 38.9993C22.0797 39.0505 29.0888 36.114 34.2461 30.8466C39.4033 25.5792 42.2783 18.4205 42.2275 10.9718C42.2275 10.5449 42.2178 10.1203 42.1983 9.69796C44.0872 8.30382 45.7173 6.57675 47.0123 4.59788C45.2526 5.39448 43.386 5.91748 41.4746 6.14948Z" fill="black"/>
</svg>
